<svg width="56" height="56" viewBox="0 0 56 56" fill="none" xmlns="http://www.w3.org/2000/svg">
<mask id="mask0" mask-type="alpha" maskUnits="userSpaceOnUse" x="4" y="4" width="48" height="48">
<rect x="4" y="4" width="48" height="48" rx="24" fill="#C4C4C4"/>
</mask>
<g mask="url(#mask0)">
<mask id="mask1" mask-type="alpha" maskUnits="userSpaceOnUse" x="4" y="4" width="48" height="48">
<rect x="4" y="4" width="48" height="48" fill="#C4C4C4"/>
</mask>
<g mask="url(#mask1)">
<rect x="4" y="4" width="48" height="48" fill="#F5EFFF"/>
<path d="M25.1648 4.17346C25.1648 4.17346 19.1086 4.54589 16.6358 10.0686C14.1059 15.7189 15.8003 18.9064 12.529 22.1442C9.25759 25.382 8.23759 29.8848 11.8378 32.5925C16.1224 35.8169 21.266 32.0825 25.3527 33.7131C34.989 37.5616 46.615 32.8575 43.9945 25.7712C42.743 22.3858 40.4581 23.4527 39.2905 14.1788C38.5758 8.47489 34.4488 2.94208 25.1648 4.17346Z" fill="#19274B"/>
<path d="M53 51.6201H3C3 51.6201 3.67105 48.4393 4.6273 45.2451C5.58355 42.0509 7.55979 40.7122 10.1198 40.0579C10.8412 39.8733 12.1632 39.4875 13.6898 39.0345C14.5521 38.7762 15.4849 38.4943 16.4076 38.2159C19.6286 37.2361 22.7725 36.2597 22.7725 36.2597L27.9732 35.8437L28.0034 35.8403L28.0336 35.8437L32.7242 36.2195C32.7242 36.2195 35.546 37.065 38.6261 37.9776C41.5183 38.8299 44.6421 39.7425 45.8801 40.0612C48.4402 40.7189 50.4165 42.0543 51.3727 45.2485C52.3289 48.4427 53 51.6201 53 51.6201Z" fill="#FFAC32"/>
<path d="M14.5958 47.1376C14.4884 48.6508 14.2468 50.1339 13.4684 51.6202H3.00336C3.00336 51.6202 3.67441 48.4394 4.63066 45.2452C5.5869 42.051 7.56315 40.7123 10.1232 40.058C10.8446 39.8735 12.1666 39.4876 13.6932 39.0347C14.4179 40.8465 14.7937 44.3293 14.5958 47.1376Z" fill="#FF8881"/>
<path d="M41.4076 47.1376C41.515 48.6508 41.7566 50.1339 42.535 51.6202H53C53 51.6202 52.329 48.4394 51.3727 45.2452C50.4165 42.051 48.4402 40.7123 45.8802 40.058C45.1588 39.8735 43.8368 39.4876 42.3102 39.0347C41.5854 40.8465 41.2096 44.3293 41.4076 47.1376Z" fill="#FF8881"/>
<path d="M38.6261 37.9742C37.9617 41.5442 35.6936 48.3822 28.057 48.7345C19.5917 49.1237 17.0518 41.1416 16.4076 38.2124C19.6286 37.2327 22.7725 36.2563 22.7725 36.2563L27.9732 35.8403L28.0033 35.8369L28.0335 35.8403L32.7242 36.2161C32.7242 36.2161 35.5426 37.0649 38.6261 37.9742Z" fill="#FF8881"/>
<path d="M28.0302 42.9233C24.6448 42.9233 22.6988 41.2155 21.6586 39.7828C20.5413 38.2428 20.2226 36.7161 20.2125 36.6524C20.1756 36.4645 20.2964 36.2833 20.4809 36.2464C20.6688 36.2095 20.85 36.3303 20.8869 36.5148C20.8936 36.545 21.199 37.9844 22.2324 39.4003C23.6047 41.2826 25.5574 42.2355 28.0302 42.2355C30.5031 42.2355 32.3485 41.2826 33.5094 39.4003C34.3851 37.9878 34.5294 36.5651 34.5294 36.5517C34.5461 36.3638 34.7173 36.2229 34.9052 36.243C35.0931 36.2598 35.234 36.4276 35.2138 36.6188C35.2071 36.6826 35.0528 38.2159 34.0932 39.766C33.2041 41.2021 31.4291 42.9233 28.0302 42.9233Z" fill="#F5EFFF"/>
<path d="M28.0305 35.8369V35.8403H28.0034L28.0305 35.8369Z" fill="#5D46C2"/>
<path d="M28.0037 35.8403H27.9732V35.8369L28.0037 35.8403Z" fill="#5D46C2"/>
<path d="M32.6404 37.491C32.6404 37.491 31.3452 39.9135 27.7283 39.9135C24.2321 39.9135 22.7625 37.3702 22.7625 37.3702L22.9772 35.6288L23.0142 35.3369L23.3497 32.5923L31.9995 32.8339L32.1438 33.8773L32.1908 34.2196L32.6404 37.491Z" fill="#FF8881"/>
<path d="M32.1372 33.8773C30.1777 35.5382 27.007 36.169 22.974 35.6288L23.0109 35.3369L23.3464 32.5923L31.9963 32.8339L32.1372 33.8773Z" fill="#19274B"/>
<path d="M20.0984 25.4523C18.1624 28.1532 13.9986 26.328 14.2804 22.7446C14.5388 19.4933 18.1691 20.01 18.1691 20.01L20.0984 25.4523Z" fill="#F55B5D"/>
<path d="M18.9844 25.8313C20.3735 26.3983 21.3533 27.7606 21.3533 29.3509C21.3533 31.4446 19.6488 33.1491 17.5551 33.1491C15.4614 33.1491 13.757 31.4446 13.757 29.3509C13.757 27.5827 14.9716 26.093 16.6123 25.6702C16.8572 25.6065 17.1156 25.5662 17.3773 25.5562C17.4175 25.6803 17.4477 25.8078 17.4578 25.942C17.3001 25.9454 17.1424 25.9621 16.9881 25.989C15.3742 26.2574 14.1395 27.6633 14.1395 29.3509C14.1395 31.2332 15.6695 32.7632 17.5518 32.7632C19.4341 32.7632 20.964 31.2332 20.964 29.3509C20.964 28.0021 20.1756 26.8345 19.0381 26.2809L18.9844 25.8313Z" fill="#F5EFFF"/>
<path d="M18.3168 25.5228C18.1993 25.5228 18.0953 25.4422 18.0651 25.3248C17.686 23.7848 16.0889 22.3487 16.0755 22.3353C15.9681 22.2413 15.958 22.0769 16.0553 21.9696C16.1493 21.8622 16.3137 21.8521 16.421 21.9494C16.4915 22.0132 18.1557 23.5063 18.5718 25.2007C18.6053 25.3382 18.5214 25.4792 18.3839 25.5127C18.357 25.5194 18.3369 25.5228 18.3168 25.5228Z" fill="#D1373F"/>
<path d="M17.6524 24.0598C17.6256 24.0598 17.5987 24.0565 17.5719 24.0464C16.8639 23.8082 16.1895 23.9524 16.1828 23.9558C16.0453 23.986 15.9077 23.8988 15.8741 23.7612C15.8439 23.6236 15.9312 23.4861 16.0687 23.4525C16.1023 23.4458 16.8874 23.2747 17.7363 23.5599C17.8705 23.6035 17.9443 23.7511 17.9007 23.8853C17.8604 23.9927 17.7598 24.0598 17.6524 24.0598Z" fill="#D1373F"/>
<path d="M34.422 25.4523C36.358 28.1532 40.5218 26.328 40.24 22.7446C39.9817 19.4933 36.3513 20.01 36.3513 20.01L34.422 25.4523Z" fill="#F55B5D"/>
<path d="M36.0057 25.8313C34.6166 26.3983 33.6368 27.7606 33.6368 29.3509C33.6368 31.4446 35.3413 33.1491 37.435 33.1491C39.5287 33.1491 41.2331 31.4446 41.2331 29.3509C41.2331 27.5827 40.0185 26.093 38.3778 25.6702C38.1329 25.6065 37.8745 25.5662 37.6128 25.5562C37.5726 25.6803 37.5424 25.8078 37.5323 25.942C37.69 25.9454 37.8477 25.9621 38.002 25.989C39.6159 26.2574 40.8506 27.6633 40.8506 29.3509C40.8506 31.2332 39.3206 32.7632 37.4383 32.7632C35.5561 32.7632 34.0261 31.2332 34.0261 29.3509C34.0261 28.0021 34.8145 26.8345 35.952 26.2809L36.0057 25.8313Z" fill="#F5EFFF"/>
<path d="M36.2037 25.5228C36.1835 25.5228 36.1634 25.5194 36.1433 25.5161C36.0057 25.4825 35.9185 25.3416 35.9554 25.204C36.3714 23.5096 38.0356 22.0132 38.1061 21.9528C38.2134 21.8588 38.3745 21.8689 38.4718 21.9729C38.5657 22.0803 38.5557 22.2413 38.4517 22.3386C38.4349 22.3521 36.8378 23.7881 36.462 25.3282C36.4251 25.4423 36.3177 25.5228 36.2037 25.5228Z" fill="#D1373F"/>
<path d="M36.868 24.0597C36.7606 24.0597 36.6599 23.9926 36.623 23.8819C36.5794 23.7477 36.6499 23.6001 36.7874 23.5565C37.6363 23.2713 38.4214 23.4424 38.455 23.4491C38.5926 23.4793 38.6831 23.6169 38.6496 23.7578C38.6194 23.8953 38.4818 23.9826 38.3409 23.9524C38.3308 23.949 37.6564 23.8081 36.9518 24.043C36.925 24.0564 36.8948 24.0597 36.868 24.0597Z" fill="#D1373F"/>
<path d="M17.4008 16.0612C17.4008 16.0612 16.4546 21.9195 18.904 27.6502C21.1218 32.8442 24.0744 34.4614 27.2183 34.5117C30.7916 34.5688 38.2738 32.5019 37.0894 15.5478C36.2875 4.09301 18.347 4.49564 17.4008 16.0612Z" fill="#FF8881"/>
<path d="M36.8679 16.6583C32.0363 16.7825 28.6609 15.4907 26.4901 14.1687C27.3759 15.3867 28.879 16.1584 28.879 16.1584C25.7653 16.9536 23.7488 13.9943 22.8865 12.3234C20.5848 15.9135 17.2833 17.6247 17.2833 17.6247C15.2835 5.43166 23.8629 4.41838 30.8284 5.07936C37.3376 5.70008 40.5889 16.561 36.8679 16.6583Z" fill="#19274B"/>
<path d="M20.0279 15.2425C20.0279 15.2425 18.3167 18.6347 18.8804 22.1443C19.4239 25.5297 19.179 28.781 17.5081 29.3547C17.5081 29.3547 18.6421 27.7308 17.6087 24.9359C16.5753 22.1409 16.3002 18.4367 16.988 16.7256C17.6758 15.0144 20.0279 15.2425 20.0279 15.2425Z" fill="#19274B"/>
<path d="M34.744 15.2425C34.744 15.2425 36.4552 18.6347 35.8915 22.1443C35.348 25.5297 35.5929 28.781 37.2638 29.3547C37.2638 29.3547 36.1297 27.7308 37.1632 24.9359C38.1966 22.1409 38.4717 18.4367 37.7839 16.7256C37.0961 15.0144 34.744 15.2425 34.744 15.2425Z" fill="#19274B"/>
<path d="M20.7359 19.0304C20.7359 19.0304 22.1048 17.1246 24.4636 16.8797C24.8461 16.8394 25.185 17.1347 25.2084 17.5172V17.5239C25.2319 17.9131 24.9233 18.2419 24.5341 18.2486C23.6483 18.2587 22.0948 18.3862 20.7359 19.0304Z" fill="#19274B"/>
<path d="M33.9691 19.0304C33.9691 19.0304 32.6001 17.1246 30.2414 16.8797C29.8589 16.8394 29.52 17.1347 29.4965 17.5172V17.5239C29.473 17.9131 29.7817 18.2419 30.1709 18.2486C31.0567 18.2587 32.6135 18.3862 33.9691 19.0304Z" fill="#19274B"/>
<path d="M27.6612 31.4717C26.9264 31.4717 26.3425 31.2133 26.3056 31.1966C26.1983 31.1462 26.1479 31.0187 26.1983 30.9114C26.2486 30.804 26.3727 30.7537 26.4835 30.804C26.5036 30.8107 27.8289 31.3912 28.8892 30.6933C28.9898 30.6295 29.1207 30.6564 29.1878 30.7537C29.2515 30.8543 29.2247 30.9852 29.1274 31.0523C28.6375 31.371 28.1208 31.4717 27.6612 31.4717Z" fill="#F55B5D"/>
<path d="M28.4228 25.9895C28.4161 25.9895 28.4127 25.9895 28.406 25.9895L26.8324 25.862C26.715 25.8519 26.6244 25.7479 26.6344 25.6305C26.6445 25.5131 26.7485 25.4225 26.8659 25.4325L28.1812 25.5399L27.7719 21.5404C27.7584 21.423 27.8457 21.3156 27.9631 21.3056C28.0806 21.2921 28.1879 21.3794 28.198 21.4968L28.6342 25.7513C28.6409 25.815 28.6174 25.8788 28.5738 25.9224C28.5369 25.966 28.4798 25.9895 28.4228 25.9895Z" fill="#F55B5D"/>
<path d="M24.2858 27.7039C26.2217 28.0058 28.1913 28.1367 30.8285 27.6133C30.8285 27.6133 30.6004 30.4317 27.4699 30.4418C24.8058 30.4518 24.2858 27.7039 24.2858 27.7039Z" fill="#F5EFFF"/>
<path d="M24.1314 21.5167C24.1314 22.2616 23.7925 22.8689 23.3731 22.8689C22.9537 22.8689 22.6148 22.2649 22.6148 21.5167C22.6148 20.7719 22.9537 20.1646 23.3731 20.1646C23.7925 20.1646 24.1314 20.7719 24.1314 21.5167Z" fill="#19274B"/>
<path d="M32.1874 21.5167C32.1874 22.2616 31.8485 22.8689 31.4291 22.8689C31.0097 22.8689 30.6708 22.2649 30.6708 21.5167C30.6708 20.7719 31.0097 20.1646 31.4291 20.1646C31.8452 20.1646 32.1874 20.7719 32.1874 21.5167Z" fill="#19274B"/>
<path d="M21.3634 24.2882C21.3634 24.4157 21.2593 24.5197 21.1318 24.5197C21.0043 24.5197 20.9003 24.4157 20.9003 24.2882C20.9003 24.1607 21.0043 24.0567 21.1318 24.0567C21.2593 24.0534 21.3634 24.1574 21.3634 24.2882Z" fill="#F55B5D"/>
<path d="M22.4975 24.8487C22.4975 24.9762 22.3935 25.0802 22.266 25.0802C22.1385 25.0802 22.0345 24.9762 22.0345 24.8487C22.0345 24.7212 22.1385 24.6172 22.266 24.6172C22.3935 24.6172 22.4975 24.7212 22.4975 24.8487Z" fill="#F55B5D"/>
<path d="M21.3634 25.6539C21.3634 25.7814 21.2594 25.8854 21.1319 25.8854C21.0044 25.8854 20.9004 25.7814 20.9004 25.6539C20.9004 25.5264 21.0044 25.4224 21.1319 25.4224C21.2594 25.4224 21.3634 25.5264 21.3634 25.6539Z" fill="#F55B5D"/>
<path d="M22.9136 26.1203C23.0414 26.1203 23.1451 26.0166 23.1451 25.8887C23.1451 25.7609 23.0414 25.6572 22.9136 25.6572C22.7857 25.6572 22.6821 25.7609 22.6821 25.8887C22.6821 26.0166 22.7857 26.1203 22.9136 26.1203Z" fill="#F55B5D"/>
<path d="M24.1013 25.8854C24.2291 25.8854 24.3328 25.7817 24.3328 25.6539C24.3328 25.526 24.2291 25.4224 24.1013 25.4224C23.9734 25.4224 23.8698 25.526 23.8698 25.6539C23.8698 25.7817 23.9734 25.8854 24.1013 25.8854Z" fill="#F55B5D"/>
<path d="M23.7926 24.5196C23.7926 24.6471 23.6886 24.7511 23.5611 24.7511C23.4336 24.7511 23.3296 24.6471 23.3296 24.5196C23.3296 24.3921 23.4336 24.2881 23.5611 24.2881C23.6886 24.2881 23.7926 24.3921 23.7926 24.5196Z" fill="#F55B5D"/>
<path d="M34.1267 24.5197C34.2546 24.5197 34.3582 24.416 34.3582 24.2882C34.3582 24.1603 34.2546 24.0566 34.1267 24.0566C33.9989 24.0566 33.8952 24.1603 33.8952 24.2882C33.8952 24.416 33.9989 24.5197 34.1267 24.5197Z" fill="#F55B5D"/>
<path d="M32.9927 25.0802C33.1205 25.0802 33.2242 24.9766 33.2242 24.8487C33.2242 24.7208 33.1205 24.6172 32.9927 24.6172C32.8648 24.6172 32.7612 24.7208 32.7612 24.8487C32.7612 24.9766 32.8648 25.0802 32.9927 25.0802Z" fill="#F55B5D"/>
<path d="M34.1267 25.8854C34.2546 25.8854 34.3582 25.7817 34.3582 25.6539C34.3582 25.526 34.2546 25.4224 34.1267 25.4224C33.9989 25.4224 33.8952 25.526 33.8952 25.6539C33.8952 25.7817 33.9989 25.8854 34.1267 25.8854Z" fill="#F55B5D"/>
<path d="M32.3417 26.1203C32.4696 26.1203 32.5733 26.0166 32.5733 25.8887C32.5733 25.7609 32.4696 25.6572 32.3417 25.6572C32.2139 25.6572 32.1102 25.7609 32.1102 25.8887C32.1102 26.0166 32.2139 26.1203 32.3417 26.1203Z" fill="#F55B5D"/>
<path d="M30.9225 25.6539C30.9225 25.7814 31.0265 25.8854 31.154 25.8854C31.2815 25.8854 31.3855 25.7814 31.3855 25.6539C31.3855 25.5264 31.2815 25.4224 31.154 25.4224C31.0265 25.4224 30.9225 25.5264 30.9225 25.6539Z" fill="#F55B5D"/>
<path d="M31.6942 24.7511C31.822 24.7511 31.9257 24.6475 31.9257 24.5196C31.9257 24.3917 31.822 24.2881 31.6942 24.2881C31.5663 24.2881 31.4626 24.3917 31.4626 24.5196C31.4626 24.6475 31.5663 24.7511 31.6942 24.7511Z" fill="#F55B5D"/>
</g>
</g>
</svg>
